<mxfile host="app.diagrams.net" modified="2023-07-28T18:34:35.019Z" agent="Mozilla/5.0 (Windows NT 10.0; Win64; x64) AppleWebKit/537.36 (KHTML, like Gecko) Chrome/115.0.0.0 Safari/537.36 Edg/115.0.1901.183" etag="GCzbFsIA41shdPfYzy5U" version="21.6.6" type="device">
  <diagram name="Page-1" id="YgEF8Rc6YDN5Ng1QnEPJ">
    <mxGraphModel dx="1266" dy="746" grid="1" gridSize="10" guides="1" tooltips="1" connect="1" arrows="1" fold="1" page="1" pageScale="1" pageWidth="850" pageHeight="1100" math="0" shadow="0">
      <root>
        <mxCell id="0" />
        <mxCell id="1" parent="0" />
        <mxCell id="dZJAuWM4ClLpMtlekzl2-5" style="edgeStyle=orthogonalEdgeStyle;rounded=0;orthogonalLoop=1;jettySize=auto;html=1;exitX=0.5;exitY=1;exitDx=0;exitDy=0;entryX=0;entryY=0.5;entryDx=0;entryDy=0;" parent="1" source="dZJAuWM4ClLpMtlekzl2-1" target="dZJAuWM4ClLpMtlekzl2-4" edge="1">
          <mxGeometry relative="1" as="geometry" />
        </mxCell>
        <mxCell id="dZJAuWM4ClLpMtlekzl2-9" value="Consultar los planes &lt;br style=&quot;font-size: 11px;&quot;&gt;establecidos y errores &lt;br style=&quot;font-size: 11px;&quot;&gt;registrados por entrenadores" style="edgeLabel;html=1;align=center;verticalAlign=middle;resizable=0;points=[];fontSize=11;" parent="dZJAuWM4ClLpMtlekzl2-5" vertex="1" connectable="0">
          <mxGeometry x="-0.4615" y="1" relative="1" as="geometry">
            <mxPoint x="69" y="1" as="offset" />
          </mxGeometry>
        </mxCell>
        <mxCell id="dZJAuWM4ClLpMtlekzl2-1" value="&lt;font style=&quot;font-size: 11px;&quot;&gt;Esgrimista&lt;/font&gt;&lt;br&gt;&lt;font style=&quot;font-size: 9px;&quot;&gt;[persona]&lt;/font&gt;" style="shape=actor;whiteSpace=wrap;html=1;fontSize=9;spacingTop=27;" parent="1" vertex="1">
          <mxGeometry x="20" y="40" width="60" height="70" as="geometry" />
        </mxCell>
        <mxCell id="dZJAuWM4ClLpMtlekzl2-7" style="edgeStyle=orthogonalEdgeStyle;rounded=0;orthogonalLoop=1;jettySize=auto;html=1;exitX=1;exitY=0.75;exitDx=0;exitDy=0;" parent="1" source="dZJAuWM4ClLpMtlekzl2-3" target="dZJAuWM4ClLpMtlekzl2-4" edge="1">
          <mxGeometry relative="1" as="geometry" />
        </mxCell>
        <mxCell id="dZJAuWM4ClLpMtlekzl2-8" value="Gestionar planes de entrenamiento,&amp;nbsp;&lt;br style=&quot;font-size: 11px;&quot;&gt;registrar errores observados al&lt;br style=&quot;font-size: 11px;&quot;&gt;entrenar" style="edgeLabel;html=1;align=center;verticalAlign=middle;resizable=0;points=[];fontSize=11;" parent="dZJAuWM4ClLpMtlekzl2-7" vertex="1" connectable="0">
          <mxGeometry x="-0.2667" relative="1" as="geometry">
            <mxPoint x="-22" y="4" as="offset" />
          </mxGeometry>
        </mxCell>
        <mxCell id="dZJAuWM4ClLpMtlekzl2-3" value="&lt;font style=&quot;font-size: 11px;&quot;&gt;Entrenador&lt;br&gt;&lt;/font&gt;&lt;font style=&quot;font-size: 9px;&quot;&gt;[persona]&lt;/font&gt;" style="shape=actor;whiteSpace=wrap;html=1;fontSize=9;spacingTop=27;" parent="1" vertex="1">
          <mxGeometry x="20" y="210" width="70" height="75" as="geometry" />
        </mxCell>
        <mxCell id="dZJAuWM4ClLpMtlekzl2-4" value="&lt;font style=&quot;font-size: 14px;&quot;&gt;Sitio web&lt;/font&gt;&lt;br&gt;&lt;font style=&quot;&quot;&gt;&lt;font style=&quot;font-size: 9px;&quot;&gt;[Sistema de software]&lt;/font&gt;&lt;br&gt;&lt;br&gt;&lt;span style=&quot;font-size: 10px;&quot;&gt;Un sitio web para que entrenadores registren planes y errores observados, los alumnos pueden&amp;nbsp;consultar estos datos&lt;/span&gt;&lt;br&gt;&lt;/font&gt;" style="whiteSpace=wrap;html=1;verticalAlign=top;" parent="1" vertex="1">
          <mxGeometry x="290" y="90" width="190" height="100" as="geometry" />
        </mxCell>
      </root>
    </mxGraphModel>
  </diagram>
</mxfile>
